<svg width="12" height="16" viewBox="0 0 12 16" fill="none" xmlns="http://www.w3.org/2000/svg">
<path d="M5.89029 0C2.64254 0 0 2.64254 0 5.89062C0 6.73784 0.173407 7.54675 0.515146 8.29507C1.98788 11.5178 4.81153 14.9203 5.64205 15.8862C5.70427 15.9584 5.79499 16 5.89045 16C5.98592 16 6.07663 15.9584 6.13886 15.8862C6.96905 14.9204 9.7927 11.5181 11.2659 8.29507C11.6078 7.54675 11.7811 6.73784 11.7811 5.89062C11.7807 2.64254 9.1382 0 5.89029 0ZM5.89029 8.95022C4.20321 8.95022 2.83052 7.57753 2.83052 5.89045C2.83052 4.20321 4.20321 2.83052 5.89029 2.83052C7.57737 2.83052 8.95006 4.20321 8.95006 5.89045C8.95022 7.57753 7.57753 8.95022 5.89029 8.95022Z" fill="#0496C8"/>
</svg>
