<svg width="94" height="100" viewBox="0 0 94 100" fill="none" xmlns="http://www.w3.org/2000/svg">
<path d="M34.6807 62.3144L36.9972 60.977C37.9413 60.4319 38.2649 59.2245 37.7197 58.2801L33.3305 50.6777C32.9649 50.0444 32.3012 49.6902 31.6191 49.6902C31.284 49.6902 30.9447 49.7753 30.6339 49.9551L28.3174 51.2925C27.9992 51.476 27.6618 51.5599 27.3332 51.5599C26.3019 51.5599 25.3561 50.7353 25.3561 49.5828V46.908C25.3561 45.8178 24.4723 44.9336 23.3817 44.9336H14.6029C13.5127 44.9336 12.6285 45.8174 12.6285 46.908V49.5828C12.6285 50.7353 11.6824 51.5599 10.6514 51.5599C10.3228 51.5599 9.9854 51.476 9.66722 51.2925L7.35072 49.9551C7.03994 49.7757 6.70021 49.6905 6.36553 49.6902C5.68304 49.6902 5.01974 50.0444 4.65408 50.6777L0.264859 58.2801C-0.280259 59.2245 0.0433104 60.4319 0.987418 60.977L3.30392 62.3144C4.62008 63.0743 4.62008 64.974 3.30392 65.7339L0.987418 67.0713C0.0429736 67.6164 -0.280259 68.8238 0.264859 69.7683L4.65408 77.3706C5.01974 78.004 5.68338 78.3582 6.36553 78.3582C6.70055 78.3582 7.03994 78.2727 7.35072 78.0932L9.66722 76.7558C9.9854 76.5723 10.3228 76.4885 10.6514 76.4885C11.6827 76.4885 12.6285 77.3131 12.6285 78.4656V81.1403C12.6285 82.2306 13.5123 83.1147 14.6029 83.1147H23.3814C24.4716 83.1147 25.3558 82.2309 25.3558 81.1403V78.4656C25.3558 77.3131 26.3019 76.4885 27.3329 76.4885C27.6615 76.4885 27.9989 76.5723 28.317 76.7558L30.6335 78.0932C30.9443 78.2727 31.284 78.3582 31.6187 78.3582C32.3012 78.3582 32.9645 78.004 33.3302 77.3706L37.7194 69.7683C38.2645 68.8238 37.941 67.6164 36.9968 67.0713L34.6803 65.7339C33.3645 64.974 33.3645 63.074 34.6807 62.3144ZM18.9925 69.8814C15.7575 69.8814 13.1352 67.2588 13.1352 64.0242C13.1352 60.7891 15.7578 58.1669 18.9925 58.1669C22.2271 58.1669 24.8497 60.7895 24.8497 64.0242C24.8497 67.2588 22.2271 69.8814 18.9925 69.8814Z" fill="#0496C8"/>
<path d="M33.1578 7.96606C32.0985 6.90747 30.3824 6.90747 29.3231 7.96606C28.2642 9.02532 28.2642 10.7418 29.3231 11.8007L34.1682 16.6455C16.3605 17.5273 1.94567 31.5149 0.385742 49.1391L0.786415 48.4448C1.93322 46.4583 4.07126 45.2243 6.36554 45.2246C6.41402 45.2246 6.46217 45.229 6.51066 45.2304C9.56588 32.5297 20.6403 22.9236 34.0578 22.0893L29.3231 26.8236C28.2642 27.8826 28.2642 29.5994 29.3231 30.6583C29.8527 31.1876 30.5464 31.4522 31.2403 31.4522C31.9342 31.4522 32.6282 31.1876 33.1575 30.6583L42.5864 21.2294C43.0948 20.7206 43.3804 20.031 43.3804 19.3122C43.3804 18.593 43.0948 17.9034 42.5864 17.395L33.1578 7.96606Z" fill="white"/>
<path d="M67.42 21.8374C73.4405 21.8374 78.3385 16.9394 78.3385 10.9189C78.3385 4.89798 73.4405 0 67.42 0C61.3994 0 56.5015 4.89798 56.5015 10.9185C56.5015 16.9391 61.3994 21.8374 67.42 21.8374Z" fill="#0496C8"/>
<path d="M88.6899 51.2714V36.2613C88.6899 32.1065 86.0199 28.4219 82.0714 27.1287L82.0532 27.1226L76.2781 26.1664C75.7866 26.0152 75.2613 26.2755 75.0845 26.7603L68.5317 44.7398C68.1536 45.7772 66.6866 45.7772 66.3088 44.7398L59.7559 26.7603C59.6132 26.3687 59.2435 26.1233 58.8475 26.1233C58.7536 26.1233 52.7872 27.1213 52.7872 27.1213C48.8064 28.4479 46.1465 32.1381 46.1465 36.3112V51.2714C46.1465 53.5135 47.964 55.3307 50.2057 55.3307H84.6303C86.8727 55.3307 88.6899 53.5132 88.6899 51.2714Z" fill="#0496C8"/>
<path d="M93.5146 54.8596C93.288 57.9623 90.7425 59.8623 87.6392 60.0872C85.2614 73.6983 73.7647 84.2085 59.7001 85.0829L64.4344 80.3485C65.4934 79.2893 65.4934 77.5728 64.4344 76.5138C63.3752 75.4552 61.659 75.4552 60.5998 76.5138L51.1711 85.9428C50.1122 87.0021 50.1122 88.7186 51.1711 89.7775L60.5998 99.2061C61.1294 99.7354 61.823 100 62.5169 100C63.2109 100 63.9048 99.7354 64.4341 99.2061C65.493 98.1472 65.493 96.4303 64.4341 95.3714L59.5893 90.5266C78.454 89.5926 93.5146 73.9519 93.5146 54.8596Z" fill="white"/>
<path d="M69.8 25.9614C69.5485 25.6874 69.1805 25.5493 68.8081 25.5493H66.032C65.6599 25.5493 65.2919 25.6874 65.04 25.9614C64.6505 26.386 64.5939 26.9991 64.8703 27.4783L66.3542 29.7153L65.6596 35.5756L67.0276 39.2146C67.1609 39.5806 67.6784 39.5806 67.8121 39.2146L69.1801 35.5756L68.4855 29.7153L69.9693 27.4783C70.2461 26.9991 70.1896 26.386 69.8 25.9614Z" fill="#0496C8"/>
</svg>
