<svg width="100" height="100" viewBox="0 0 100 100" fill="none" xmlns="http://www.w3.org/2000/svg">
<g clip-path="url(#clip0)">
<path d="M6.56516 36.6387C7.09081 38.4409 7.82028 40.1788 8.74285 41.8094L6.1146 45.1242C5.25639 46.2077 5.35294 47.7524 6.31842 48.7286L10.8454 53.2557C11.8217 54.2319 13.3664 54.3176 14.4499 53.4594L17.7433 50.8526C19.4382 51.8289 21.2404 52.5905 23.1178 53.1268L23.6112 57.3642C23.7722 58.7373 24.9307 59.7672 26.3039 59.7672H32.7082C34.0813 59.7672 35.2399 58.7372 35.4008 57.3642L35.8728 53.277C37.8896 52.7514 39.8206 51.9683 41.6335 50.9491L44.8196 53.4701C45.9031 54.3283 47.4479 54.2318 48.4241 53.2663L52.9511 48.7393C53.9273 47.7631 54.0131 46.2183 53.1549 45.1348L50.6769 41.9916C51.7067 40.2107 52.5113 38.3121 53.0476 36.3275L56.8666 35.8876C58.2399 35.7267 59.2696 34.5682 59.2696 33.195V26.7907C59.2696 25.4176 58.2398 24.259 56.8666 24.0981L53.1013 23.6582C52.5863 21.6951 51.814 19.8178 50.8271 18.0585L53.1443 15.1298C54.0025 14.0464 53.906 12.5016 52.9405 11.5254L48.4242 7.00908C47.448 6.03287 45.9032 5.94705 44.8197 6.80525L41.9769 9.05804C40.1318 7.97456 38.1578 7.14853 36.0875 6.5907L35.6584 2.91115C35.4975 1.53802 34.3389 0.508179 32.9658 0.508179H26.5614C25.1883 0.508179 24.0297 1.53802 23.8688 2.91115L23.4397 6.5907C21.3156 7.15926 19.2881 8.01747 17.4001 9.14386L14.45 6.80525C13.3665 5.94705 11.8218 6.0436 10.8456 7.00908L6.31853 11.5361C5.34232 12.5123 5.2565 14.0571 6.11471 15.1406L8.58204 18.2623C7.59511 20.0431 6.84418 21.9418 6.35071 23.9157L2.40297 24.3663C1.02984 24.5272 0 25.6857 0 27.0589V33.4632C0 34.8363 1.02984 35.9949 2.40297 36.1558L6.56516 36.6387ZM29.7689 19.3137C35.6046 19.3137 40.3569 24.066 40.3569 29.9018C40.3569 35.7376 35.6046 40.4899 29.7689 40.4899C23.9332 40.4899 19.1808 35.7376 19.1808 29.9018C19.1808 24.066 23.9331 19.3137 29.7689 19.3137Z" fill="#0496C8"/>
<path d="M93.0827 38.2156L89.7035 35.3621C88.6631 34.4824 87.1289 34.5253 86.1421 35.4586L84.2755 37.2072C82.6987 36.4456 81.0252 35.9092 79.2979 35.5981L78.7725 33.0235C78.5043 31.6933 77.2706 30.7707 75.9187 30.878L71.5097 31.2534C70.158 31.3714 69.096 32.4764 69.0531 33.8388L68.9674 36.4563C67.2723 37.0678 65.6739 37.9045 64.215 38.9558L61.9837 37.4754C60.8464 36.7245 59.3339 36.939 58.4544 37.9796L55.6008 41.3802C54.7211 42.4208 54.764 43.9549 55.6972 44.9418L57.6497 47.0228C56.9737 48.5461 56.491 50.1446 56.2122 51.7859L53.423 52.3544C52.0928 52.6226 51.1702 53.8563 51.2775 55.208L51.653 59.6171C51.771 60.9687 52.8759 62.0308 54.2383 62.0737L57.2528 62.1701C57.8001 63.6076 58.5187 64.9701 59.3876 66.2466L57.7034 68.789C56.9525 69.9261 57.1671 71.4387 58.2075 72.3184L61.5867 75.1719C62.6274 76.0516 64.1613 76.0087 65.1484 75.0754L67.3582 73.0049C68.8065 73.6808 70.3297 74.185 71.8959 74.4853L72.5075 77.5105C72.7757 78.8407 74.0093 79.7633 75.361 79.656L79.77 79.2806C81.1217 79.1626 82.1837 78.0577 82.2266 76.6952L82.3232 73.7343C83.9323 73.1657 85.4555 72.3934 86.8609 71.4387L89.2961 73.0479C90.4332 73.7988 91.9457 73.5842 92.8255 72.5437L95.679 69.1645C96.5586 68.1239 96.5157 66.5899 95.5825 65.6029L93.6192 63.5219C94.3381 61.9986 94.8638 60.3895 95.164 58.7373L97.8459 58.1902C99.1761 57.922 100.099 56.6883 99.9914 55.3366L99.6159 50.9275C99.4979 49.5759 98.393 48.5138 97.0306 48.4709L94.338 48.3851C93.78 46.8189 93.0291 45.3386 92.0959 43.9654L93.5655 41.7555C94.338 40.6186 94.1234 39.0953 93.0827 38.2156ZM76.4659 63.7042C71.7029 64.1119 67.4975 60.561 67.1007 55.7981C66.6929 51.035 70.244 46.8297 75.0068 46.4328C79.7698 46.0252 83.9752 49.5761 84.3721 54.339C84.7798 59.1021 81.2288 63.3073 76.4659 63.7042Z" fill="#0496C8"/>
<path d="M20.5882 78.2158L20.5881 78.2198L20.5559 80.9339L20.5559 80.9377C20.5425 81.7886 21.1725 82.5149 22.0207 82.6227L22.0225 82.6229L24.0178 82.8803L24.6782 82.9655L24.8543 83.6075C25.1659 84.7433 25.6075 85.8268 26.1789 86.8494L26.5094 87.4407L26.0827 87.967L24.7964 89.5534C24.7963 89.5536 24.7961 89.5538 24.796 89.554C24.2537 90.2256 24.2983 91.1776 24.8945 91.7872L24.8945 91.7872L26.7933 93.7289C27.3934 94.3425 28.3467 94.41 29.0287 93.8834L29.0289 93.8832L30.6272 92.6495L31.1634 92.2357L31.7467 92.5801C32.8058 93.2055 33.9207 93.697 35.081 94.037L35.7248 94.2257L35.7944 94.893L36.0089 96.9527L36.009 96.9537C36.0964 97.8011 36.8108 98.4526 37.6611 98.4593L37.6651 98.4594L40.3793 98.4916L40.3832 98.4916C41.2338 98.505 41.96 97.8753 42.068 97.0275L20.5882 78.2158ZM20.5882 78.2158C20.5948 77.3654 21.2464 76.6511 22.0938 76.5637L23.9707 76.3706L24.6614 76.2996L24.8362 75.6276C25.1556 74.3995 25.6467 73.2245 26.2736 72.1122L26.5998 71.5335L26.1927 71.0085L25.046 69.5294C25.0458 69.5292 25.0456 69.529 25.0454 69.5287C24.5194 68.847 24.5871 67.8941 25.2005 67.2942L25.2005 67.2942L27.1529 65.3846C27.1529 65.3846 27.1529 65.3846 27.1529 65.3846C27.7622 64.7888 28.7136 64.7438 29.3852 65.2852C29.3858 65.2857 29.3863 65.2861 29.3868 65.2865L30.7241 66.3777L31.2582 66.8136L31.8556 66.4694C33.0438 65.7847 34.3223 65.2613 35.6499 64.9194L36.3062 64.7504L36.3924 64.0782L36.6069 62.4046L36.6071 62.4035C36.7148 61.5553 37.4411 60.9253 38.292 60.9387L38.2959 60.9387L41.01 60.9709L41.014 60.971C41.8642 60.9777 42.5784 61.6288 42.666 62.4761C42.6661 62.4762 42.6661 62.4764 42.6661 62.4766L42.8377 64.1596L42.9068 64.8366L43.5618 65.0208C44.8476 65.3825 46.0734 65.9149 47.2194 66.6086L47.8044 66.9627L48.3466 66.546L49.6448 65.5484L49.6467 65.5469C50.3285 65.0202 51.282 65.0877 51.8821 65.7014L53.7808 67.643L53.7808 67.6431C54.3768 68.2524 54.4217 69.2039 53.8799 69.8756C53.8796 69.8761 53.8792 69.8765 53.8789 69.8769L52.7978 71.2041L52.3737 71.7249L52.6953 72.3145C53.298 73.4195 53.7611 74.607 54.0735 75.8366L54.2408 76.4947L54.9142 76.582L56.6522 76.8073L56.6547 76.8076C57.5028 76.9153 58.1328 77.6416 58.1193 78.4924L58.1193 78.4964L58.0872 81.2106L58.0872 81.2144C58.0804 82.0648 57.4289 82.7792 56.5815 82.8666L54.8015 83.0489L54.1271 83.118L53.9416 83.77C53.5906 85.0034 53.0789 86.1777 52.4152 87.2839L52.0645 87.8683L52.4803 88.4084L53.6284 89.8996L53.6293 89.9008C54.1559 90.5827 54.0883 91.5362 53.4748 92.1362L51.5331 94.035L51.533 94.035C50.9233 94.6313 49.9709 94.6759 49.2991 94.133L49.2987 94.1327L47.7968 92.9205L47.2773 92.5012L46.6909 92.8201C45.5413 93.4454 44.3341 93.9178 43.0678 94.2294L42.4008 94.3936L42.3147 95.0751L42.068 97.0269L20.5882 78.2158ZM39.5203 71.5008L39.5202 71.5008C35.0769 71.452 31.4138 75.0134 31.3647 79.4626L31.3647 79.4627C31.3158 83.9061 34.8771 87.5692 39.3265 87.6183C43.7698 87.6671 47.4331 84.1058 47.4821 79.6564C47.5309 75.2131 43.9696 71.5499 39.5203 71.5008Z" fill="white" stroke="white" stroke-width="2"/>
</g>
<defs>
<clipPath id="clip0">
<rect width="100" height="100" fill="white"/>
</clipPath>
</defs>
</svg>
