<svg width="100" height="100" viewBox="0 0 100 100" fill="none" xmlns="http://www.w3.org/2000/svg">
<path d="M45.8072 55.8425L33.1568 43.8009L27.7686 49.4616L46.2457 67.0499L74.3996 35.7032L68.5853 30.481L45.8072 55.8425Z" fill="white"/>
<path d="M82.1283 12.7328C72.6553 11.0352 63.9314 5.86172 59.5744 2.9291C56.7275 1.01289 53.4168 0 49.9998 0C46.5828 0 43.2719 1.01289 40.4252 2.92891C36.0682 5.86152 27.3443 11.0352 17.8713 12.7328C12.2607 13.7383 8.18848 18.5926 8.18848 24.2752V47.8514C8.18848 55.6398 10.3676 63.232 14.6648 70.4176C18.027 76.0389 22.6852 81.4113 28.5102 86.3857C38.3045 94.75 48.0031 99.1115 48.4109 99.2932L49.9996 100L51.5883 99.2932C51.9963 99.1117 61.6947 94.75 71.4891 86.3857C77.3139 81.4113 81.9725 76.0389 85.3344 70.4176C89.632 63.2322 91.8107 55.6398 91.8107 47.8514V24.2754C91.8111 18.5926 87.7389 13.7383 82.1283 12.7328ZM83.9959 47.8516C83.9959 59.4629 78.1301 70.3857 66.5609 80.3172C59.8359 86.0902 53.0082 89.8531 50.0002 91.3803C43.0857 87.867 16.0037 72.525 16.0037 47.8516V24.2754C16.0037 22.3818 17.3689 20.7627 19.25 20.4256C30.1324 18.4754 39.9225 12.6881 44.7893 9.4123C46.3414 8.36738 48.1432 7.81504 49.9998 7.81504C51.8564 7.81504 53.6584 8.36738 55.2103 9.41211C60.0773 12.6881 69.8672 18.475 80.7496 20.4252C82.6305 20.7623 83.9959 22.3814 83.9959 24.275V47.8516Z" fill="#0496C8"/>
</svg>
