<svg width="100" height="100" viewBox="0 0 100 100" fill="none" xmlns="http://www.w3.org/2000/svg">
<g clip-path="url(#clip0)">
<path d="M74.3167 42.8426C73.8868 42.945 73.5798 43.2725 73.1499 43.3748C72.6177 43.5795 72.1878 43.7024 71.6556 43.8047C71.0211 43.9071 70.5912 43.4772 70.3865 42.945C70.2842 42.4128 70.1818 41.9829 70.2842 41.4507C70.3865 40.4886 70.6117 39.5266 70.8164 38.5645C71.3486 35.6783 71.8808 32.7102 72.413 29.824C72.5154 29.0871 72.7405 28.2274 72.6177 27.47C72.6177 26.508 71.9832 26.0781 71.0211 26.0781C69.752 26.0781 68.3601 26.0781 67.0705 26.0781C65.7809 26.0781 64.5118 26.0781 63.345 26.0781C63.0175 26.0781 62.7105 26.0781 62.383 26.1805C61.8508 26.2828 61.5232 26.6103 61.4209 27.0402C61.4209 27.3677 61.6256 27.7771 62.1578 28.0023C62.5877 28.1046 63.0175 28.207 63.5497 28.207C64.6141 28.3093 64.9417 28.7392 64.9417 29.8036C64.9417 30.0083 64.9417 30.1311 64.9417 30.3358C64.5118 32.8945 64.0819 35.4532 63.5497 38.0118C63.345 39.5061 63.1199 41.0004 62.9152 42.3718C62.5877 44.5007 64.737 46.5271 66.3336 46.7318C67.2956 46.8342 68.3601 46.9365 69.3221 46.9365C71.4509 46.9365 73.2727 45.9745 74.767 44.4802C74.9717 44.2755 75.2992 43.8456 75.2992 43.5181C75.3811 42.9655 74.9512 42.5356 74.3167 42.8426Z" fill="white"/>
<path d="M90.7328 9.27268C78.4716 -3.09089 58.5343 -3.09089 46.2936 9.27268C34.4622 21.104 34.0324 39.9769 45.0245 52.3405L45.2292 52.5452C44.0624 55.1039 41.9336 58.2971 38.7199 59.8937C37.6555 60.4259 37.8602 62.0225 39.0474 62.2477C42.6705 62.7799 47.7879 62.2477 52.4754 58.6246L52.5777 58.727C64.6138 65.7685 80.3958 64.1718 90.7328 53.8143C102.994 41.4712 102.994 21.5339 90.7328 9.27268ZM68.5644 55.6361C55.2388 55.6361 44.4718 44.8691 44.4718 31.5435C44.4718 18.2178 55.2388 7.47136 68.5644 7.47136C81.89 7.47136 92.657 18.2383 92.657 31.5639C92.657 44.8896 81.89 55.6361 68.5644 55.6361Z" fill="#0496C8"/>
<path d="M59.0667 73.5468C56.6104 70.9882 53.4171 70.9882 50.8585 73.5468C48.9343 75.471 47.0307 77.3746 45.1065 79.2988C44.5743 79.831 44.1445 79.9333 43.5099 79.6263C42.3432 78.8894 40.9512 78.3572 39.7845 77.5998C34.2372 74.0791 29.5497 69.5962 25.3944 64.4993C23.3679 61.9406 21.5666 59.2796 20.277 56.1887C20.0723 55.5542 20.0723 55.2267 20.6046 54.6944C22.631 52.8727 24.4323 50.969 26.3565 49.0449C29.0175 46.3838 29.0175 43.2929 26.3565 40.6319C24.7599 39.0353 23.2656 37.541 21.7713 36.0467C20.1747 34.4501 18.6804 32.8535 17.0838 31.3592C14.6275 28.9029 11.4342 28.9029 8.87554 31.3592C6.95141 33.2834 5.04774 35.187 3.12361 37.1112C1.30183 38.9329 0.360231 41.0618 0.135067 43.4976C-0.192445 47.4482 0.769621 51.276 2.16155 55.0015C5.04774 62.7799 9.40775 69.4939 14.6275 75.778C21.7713 84.3138 30.2866 91.0278 40.2143 95.8177C44.6971 97.9465 49.2823 99.6455 54.1745 99.973C57.6953 100.178 60.6838 99.2361 63.1197 96.5546C64.7163 94.6304 66.6404 93.0338 68.3394 91.2325C70.8981 88.5715 70.8981 85.3782 68.3394 82.8195C65.2485 79.7286 62.1576 76.6377 59.0667 73.5468Z" fill="#0496C8"/>
<path d="M69.3013 24.195C71.5325 24.195 73.3543 22.3732 73.3543 20.142C73.3543 17.9108 71.5325 15.9867 69.3013 15.9867C67.0701 15.9867 65.2483 17.8085 65.146 20.0397C65.2483 22.3936 67.0701 24.195 69.3013 24.195Z" fill="white"/>
</g>
<defs>
<clipPath id="clip0">
<rect width="100" height="100" fill="white"/>
</clipPath>
</defs>
</svg>
