<svg width="100" height="100" viewBox="0 0 100 100" fill="none" xmlns="http://www.w3.org/2000/svg">
<path d="M100 67.6758C100 53.0998 90.1787 40.3648 76.329 36.5273C75.4585 16.2384 58.683 0 38.1836 0C17.1288 0 0 17.1288 0 38.1836C0 45.0455 1.82648 51.7265 5.2948 57.592L0.140381 76.226L18.7752 71.0724C24.1669 74.2607 30.249 76.0567 36.5265 76.3275C40.3633 90.1779 53.0991 100 67.6758 100C73.494 100 79.1519 98.4505 84.1232 95.5063L99.8589 99.8589L95.5063 84.1232C98.4505 79.1519 100 73.494 100 67.6758ZM19.6999 64.7369L8.54416 67.823L11.6302 56.6673L10.9268 55.5672C7.61185 50.3807 5.85938 44.3695 5.85938 38.1836C5.85938 20.3598 20.3598 5.85938 38.1836 5.85938C56.0074 5.85938 70.5078 20.3598 70.5078 38.1836C70.5078 56.0074 56.0074 70.5078 38.1836 70.5078C31.9977 70.5078 25.9872 68.7553 20.8 65.4404L19.6999 64.7369ZM91.4558 91.4558L83.1779 89.1655L82.0724 89.8849C77.787 92.6689 72.8081 94.1406 67.6758 94.1406C56.2195 94.1406 46.1525 86.7332 42.5858 76.1116C60.1288 74.0891 74.0891 60.1288 76.1124 42.585C86.7332 46.1525 94.1406 56.2195 94.1406 67.6758C94.1406 72.8081 92.6689 77.787 89.8849 82.0724L89.1655 83.1779L91.4558 91.4558Z" fill="#0496C8"/>
<path d="M35.2539 52.9297H41.1133V58.7891H35.2539V52.9297Z" fill="white"/>
<path d="M44.043 29.2969C44.043 30.9608 43.3655 32.4966 42.1356 33.622L35.2539 39.9208V47.0703H41.1133V42.5011L46.0915 37.9448C48.513 35.7285 49.9023 32.5768 49.9023 29.2969C49.9023 22.8348 44.6457 17.5781 38.1836 17.5781C31.7215 17.5781 26.4648 22.8348 26.4648 29.2969H32.3242C32.3242 26.0658 34.9525 23.4375 38.1836 23.4375C41.4146 23.4375 44.043 26.0658 44.043 29.2969Z" fill="white"/>
</svg>
