<svg xmlns="http://www.w3.org/2000/svg" width="140" height="43" viewBox="0 0 51.91 16.68"><defs><style>.cls-1{fill:#fff}.cls-2{fill:#0496c8}</style></defs><g id="Layer_2" data-name="Layer 2"><g id="Layer_1-2" data-name="Layer 1"><path d="M21.27 6.92h7.55l.51-2.39H17.91l-1.46 6.92h13.73l.6-2.85h-9.86l.35-1.68z" class="cls-1"/><path d="M22.14 2.85H32L32.6 0H21.4a3.12 3.12 0 00-3 2.47l-.08.38zM38 2.85h9.1L47.71 0H37.06c-1.94 0-3.06.83-3.43 2.48l-.08.37z" class="cls-2"/><path d="M36.32 8.22a.72.72 0 010-.17l.74-3.52H33.2L32.26 9l-.06.36v.33c0 1.19.82 1.78 2.45 1.78h10.64l.59-2.85h-9.06c-.34-.02-.5-.13-.5-.4z" class="cls-1"/><g><path d="M5.69 2.85H16.3v-.06a3.85 3.85 0 00.1-.79c0-1.33-.89-2-2.68-2H2.42l-.6 2.85z" class="cls-2"/><path d="M12.06 4.53L11.33 8a.71.71 0 01-.77.59H4.47l.86-4.07H1.46L0 11.45h11.29c2.13 0 3.38-.93 3.77-2.79l.88-4.13z" class="cls-1"/></g><g><path d="M50.84 2.09l-.31-.5h-.33v.5h-.28V.76h.67a.58.58 0 01.37.1.35.35 0 01.13.3.41.41 0 01-.09.24.36.36 0 01-.22.13l.37.56zm0-.92c0-.13-.08-.19-.25-.19h-.39v.39h.37a.3.3 0 00.18-.05.2.2 0 00.06-.15z" class="cls-2"/><path d="M50.48 2.85a1.43 1.43 0 111.43-1.42 1.43 1.43 0 01-1.43 1.42zm0-2.64a1.22 1.22 0 101.21 1.22A1.22 1.22 0 0050.48.21z" class="cls-2"/></g><g><path d="M.26 16.65v-2.47H1c1 0 1.36.55 1.36 1.2a1.21 1.21 0 01-.35.91 1.4 1.4 0 01-1 .36zm.32-2.17v1.87H1a.91.91 0 001-1c0-.55-.31-.9-1-.9zM2.91 14.05a.17.17 0 01.18.17.18.18 0 01-.18.18.18.18 0 01-.19-.18.17.17 0 01.19-.17zm-.15 2.6v-1.83h.3v1.83zM5.13 16.3a.83.83 0 01-.73.38 1 1 0 01-.71-.26.9.9 0 01-.27-.69 1 1 0 01.25-.73.87.87 0 01.69-.27A.85.85 0 015 15a.79.79 0 01.24.61 1.5 1.5 0 010 .22h-1.5a.6.6 0 00.67.57.64.64 0 00.53-.28zm-1.4-.74h1.16a.52.52 0 00-.56-.56.58.58 0 00-.6.56zM5.55 16.65v-2.57h.3v2.57zM7.94 16.27a.86.86 0 01-.75.41 1 1 0 01-.71-.26.9.9 0 01-.27-.69.93.93 0 01.26-.73 1 1 0 01.7-.27.82.82 0 01.74.38l-.23.15a.61.61 0 00-.51-.25.63.63 0 00-.46.19.66.66 0 00-.19.49.62.62 0 00.19.48.68.68 0 00.5.19.58.58 0 00.52-.28zM8.33 15a.94.94 0 01.7-.27.93.93 0 01.7.27.94.94 0 01.28.69.92.92 0 01-.28.68 1 1 0 01-1.4 0 .91.91 0 01-.27-.68.93.93 0 01.27-.69zm.23 1.17a.61.61 0 00.44.23.63.63 0 00.48-.19.65.65 0 00.18-.48.64.64 0 00-.66-.68.65.65 0 00-.47.19.68.68 0 00-.19.49.65.65 0 00.22.48zM13 16.65h-.3v-1.13c0-.31-.12-.46-.38-.46a.52.52 0 00-.5.33v1.26h-.3v-1.22a.35.35 0 00-.38-.37.55.55 0 00-.5.37v1.22h-.3v-1.83h.3v.24a.66.66 0 01.56-.28.55.55 0 01.54.28.7.7 0 01.6-.28.58.58 0 01.66.65zM13.44 15.81v-.27h.9v.27zM14.88 16.65v-2.47h1.77v.3H15.2v.77h1.35v.29H15.2v.81h1.48v.3zM19.21 16.25a1.18 1.18 0 01-.95.43 1.26 1.26 0 01-.93-.35 1.21 1.21 0 01-.35-.91 1.26 1.26 0 01.35-.91 1.31 1.31 0 011.85.05l-.21.2a1 1 0 00-.73-.3.88.88 0 00-.68.26 1 1 0 00-.24.7 1 1 0 00.26.69.94.94 0 00.7.26A1 1 0 0019 16zM22.69 16.25a1.2 1.2 0 01-1 .43 1.25 1.25 0 01-.92-.35 1.21 1.21 0 01-.35-.91 1.26 1.26 0 01.35-.91 1.31 1.31 0 011.85.05l-.21.2a1 1 0 00-.73-.3.88.88 0 00-.68.26 1 1 0 00-.24.7.91.91 0 00.26.69.93.93 0 00.69.26 1 1 0 00.76-.33zM23.05 15a.94.94 0 01.7-.27 1 1 0 01.7.27.93.93 0 01.27.69.91.91 0 01-.27.68 1 1 0 01-.7.27.94.94 0 01-.7-.27.91.91 0 01-.27-.68.93.93 0 01.27-.69zm.22 1.17a.63.63 0 00.48.19.63.63 0 00.66-.67.7.7 0 00-.19-.49.67.67 0 00-.47-.19.65.65 0 00-.47.19.64.64 0 00-.19.49.68.68 0 00.18.52zM26.15 16.65v-2.47h.32v2.17h1.46v.3zM28 15.1v-.28h.38v-.47h.29v.47h.63v.28h-.63v.8c0 .36.09.49.32.49a.51.51 0 00.33-.13l.13.22a.63.63 0 01-.51.19c-.37 0-.56-.24-.56-.69v-.88zM31 16.65v-.22a.68.68 0 01-.57.25.87.87 0 01-.66-.25 1 1 0 01-.25-.69.94.94 0 01.27-.7.9.9 0 01.66-.27.76.76 0 01.55.23v-.87h.29v2.57zm0-.6v-.74a.59.59 0 00-.51-.26.65.65 0 00-.65.68.61.61 0 00.63.67.63.63 0 00.53-.35z" class="cls-1"/></g></g></g></svg>