<svg width="16" height="16" viewBox="0 0 16 16" fill="none" xmlns="http://www.w3.org/2000/svg">
<path d="M8.00004 0C3.58206 0 0 3.58206 0 8.00004C0 12.418 3.58206 16.0001 8.00004 16.0001C12.418 16.0001 16 12.4179 16 8.00004C16.0001 3.58206 12.418 0 8.00004 0ZM12.2246 11.6729L11.584 12.3136C11.4697 12.4278 11.1348 12.4991 11.1241 12.4991C9.09766 12.5168 7.14654 11.7208 5.71296 10.2871C4.27547 8.84876 3.47858 6.89068 3.49998 4.85745C3.49998 4.85652 3.57332 4.53126 3.68758 4.41808L4.32809 3.77747C4.56248 3.54199 5.01273 3.43558 5.32814 3.5411L5.46288 3.58605C5.77736 3.69147 6.10755 4.0392 6.19444 4.35955L6.51664 5.54212C6.60353 5.8634 6.48634 6.32047 6.25201 6.55486L5.82432 6.98262C6.24423 8.53715 7.46396 9.75711 9.01875 10.178L9.44628 9.75018C9.68176 9.5147 10.1387 9.39761 10.4593 9.48437L11.6417 9.80772C11.9621 9.89577 12.3097 10.2239 12.4151 10.5383L12.4601 10.6749C12.5645 10.9895 12.4589 11.4396 12.2246 11.6729Z" fill="#0496C8"/>
</svg>
